<svg viewBox="0 0 169.13 71.46" xmlns="http://www.w3.org/2000/svg"><path d="m78.84 11.22c-1.14-3.83-3.66-6.74-8.52-6.97-.13 0-.26-.01-.38-.01-10.7-.3-8.18 10.54-5.44 21.34-2.92-1.84-6.83-2.21-9.79-.35-2.95 1.85-3.98 4.98-4.09 7.97-.12 3.44 1.38 6.75 3.62 9.5 2.77 3.41 5.5 4.93 7.95 5.32.18.03.36.05.53.07-.2.28-.37.58-.49.92-.82 2.22-1.14 5.01-.45 8.42 1.66 5.05 7.49 14.13 17.53 10.09.97-.49 2.25-1.64 2.92-3.51 4.72 5.34 10.39 8.48 15.88 4.31 7.73-5.87 4.56-12.55.08-17.04 7.7.89 14.66-1.37 12.65-12.53-1.69-9.37-7.45-11.97-13.62-11.6 1.8-2.14 2.91-4.21 3.39-5.55 1.17-2.92.93-10.09-9.47-15.4-5.25-2.68-9.33.28-12.29 5.03zm-11.24 34.66c-1.22-1.89-2.04-3.95-2.51-5.7-.86-4.65-.47-14.41 7.98-16.26s13.32 5.91 14.7 10.02c4.54 8.94-7.35 21.8-16.11 16.17-1.65-1.06-2.99-2.56-4.05-4.19-.02 0-.04 0-.06 0 .01-.01.02-.03.03-.04z" fill="#361f0f" fill-rule="evenodd"/><text/><g fill="#361f0f"><path d="m54.94 61.15c-.27 2.12-1.23 3.96-2.88 5.52-1.62 1.54-3.58 2.66-5.87 3.36s-4.75 1.03-7.38 1.01c-2.63 0-5.09-.36-7.38-1.08-2.26-.72-4.2-1.88-5.8-3.46-1.6-1.61-2.5-3.51-2.7-5.7-.12-1.68.06-3.4.55-5.16s1.24-3.75 2.25-5.99c.64-1.59.23-2.37-1.22-2.35-.81.02-2.71.47-5.69 1.34-1.75.53-3.03.84-3.84.94-5.81.72-9.99-.54-12.55-3.79-1.62-2.07-2.44-4.6-2.44-7.58.02-3.01.91-5.89 2.66-8.66.86-1.32 2.09-2.77 3.69-4.33 1.62-1.59 3.4-3.26 5.32-5.02 1.92-1.78 3.43-3.32 4.54-4.62.74-.82 1.66-1.92 2.77-3.32 1.13-1.4 2.09-2.57 2.88-3.54.79-.99 1.74-2.06 2.84-3.21 1.13-1.15 2.18-2.09 3.14-2.81.98-.72 2.09-1.34 3.32-1.84 1.26-.53 2.52-.81 3.8-.83 1.57-.05 3.14.01 4.69.18 1.58.14 3.16.45 4.76.9s3 1.05 4.21 1.77c1.23.72 2.23 1.67 2.99 2.85.76 1.15 1.13 2.47 1.11 3.93-.02 1.44-.34 3.04-.96 4.8-.62 1.73-1.28 3.32-1.99 4.76s-1.38 3.24-1.99 5.38-.93 4.28-.96 6.42c-.05 2.17.23 4.44.85 6.82s1.35 4.58 2.21 6.6 1.71 3.99 2.55 5.92c.86 1.92 1.54 3.84 2.03 5.74.49 1.88.65 3.56.48 5.05zm-21.86-50.42c-.12-.96-.26-1.78-.41-2.45-.12-.7-.23-1.3-.33-1.8-.1-.51-.25-.84-.44-1.01-.2-.17-.34-.34-.44-.51-.07-.17-.25-.12-.52.14-.27.24-.46.39-.55.43-.07.05-.28.36-.63.94-.34.58-.57.96-.66 1.15s-.36.67-.78 1.44c-.27.48-.48.87-.63 1.15-.15.26-.34.63-.59 1.08-.25.46-.48.87-.7 1.23-.15.26-.5.85-1.07 1.77s-.97 1.58-1.22 1.98c-.22.41-.53.97-.92 1.7-.39.7-.7 1.32-.92 1.88-.22.53-.41 1.03-.55 1.52-.64 2.12-.18 3.33 1.37 3.65 1.97.34 3.96.26 5.98-.22 2.02-.51 3.34-1.47 3.95-2.89.25-1.01.37-2.62.37-4.84.02-2.24-.07-4.35-.3-6.35z"/><path d="m169.07 61.57c-.27 2.12-1.23 3.96-2.88 5.52-1.62 1.54-3.58 2.66-5.87 3.36s-4.75 1.03-7.38 1.01c-2.63 0-5.09-.36-7.38-1.08-2.26-.72-4.2-1.88-5.8-3.46-1.6-1.61-2.5-3.51-2.7-5.7-.12-1.68.06-3.4.55-5.16s1.24-3.75 2.25-5.99c.64-1.59.23-2.37-1.22-2.35-.81.02-2.71.47-5.69 1.34-1.75.53-3.03.84-3.84.94-5.81.72-9.99-.54-12.55-3.79-1.62-2.07-2.44-4.6-2.44-7.58.02-3.01.91-5.89 2.66-8.66.86-1.32 2.09-2.77 3.69-4.33 1.62-1.59 3.4-3.26 5.32-5.02 1.92-1.78 3.43-3.32 4.54-4.62.74-.82 1.66-1.92 2.77-3.32 1.13-1.4 2.09-2.57 2.88-3.54.79-.99 1.74-2.06 2.84-3.21 1.13-1.15 2.18-2.09 3.14-2.81.98-.72 2.09-1.34 3.32-1.84 1.26-.53 2.52-.81 3.8-.83 1.57-.05 3.14.01 4.69.18 1.58.14 3.16.45 4.76.9s3 1.05 4.21 1.77c1.23.72 2.23 1.67 2.99 2.85.76 1.15 1.13 2.47 1.11 3.93-.02 1.44-.34 3.04-.96 4.8-.62 1.73-1.28 3.32-1.99 4.76s-1.38 3.24-1.99 5.38-.93 4.28-.96 6.42c-.05 2.17.23 4.44.85 6.82s1.35 4.58 2.21 6.6 1.71 3.99 2.55 5.92c.86 1.92 1.54 3.84 2.03 5.74.49 1.88.65 3.56.48 5.05zm-21.86-50.42c-.12-.96-.26-1.78-.41-2.45-.12-.7-.23-1.3-.33-1.8-.1-.51-.25-.84-.44-1.01-.2-.17-.34-.34-.44-.51-.07-.17-.25-.12-.52.14-.27.24-.46.39-.55.43-.07.05-.28.36-.63.94-.34.58-.57.96-.66 1.15s-.36.67-.78 1.44c-.27.48-.48.87-.63 1.15-.15.26-.34.63-.59 1.08-.25.46-.48.87-.7 1.23-.15.26-.5.85-1.07 1.77s-.97 1.58-1.22 1.98c-.22.41-.53.97-.92 1.7-.39.7-.7 1.32-.92 1.88-.22.53-.41 1.03-.55 1.52-.64 2.12-.18 3.33 1.37 3.65 1.97.34 3.96.26 5.98-.22 2.02-.51 3.34-1.47 3.95-2.89.25-1.01.37-2.62.37-4.84.02-2.24-.07-4.35-.3-6.35z"/></g></svg>