<svg width="411" height="84" viewBox="0 0 411 84" fill="none" xmlns="http://www.w3.org/2000/svg">
<path d="M350.732 51.5436C351.553 52.9806 352.497 54.2329 353.565 55.3003C354.632 56.3268 355.782 57.1068 357.013 57.6406C358.286 58.1743 359.559 58.4412 360.832 58.4412C361.899 58.4412 362.802 58.2359 363.542 57.8253C364.281 57.3737 364.65 56.6757 364.65 55.7314C364.65 55.1566 364.445 54.664 364.034 54.2534C363.665 53.8428 362.905 53.3707 361.756 52.8369C360.606 52.3032 358.861 51.5847 356.521 50.6815C355.494 50.2709 354.304 49.7166 352.949 49.0187C351.635 48.3207 350.362 47.4174 349.131 46.3089C347.94 45.2004 346.934 43.8455 346.113 42.2443C345.333 40.6431 344.943 38.7545 344.943 36.5785C344.943 33.7455 345.702 31.3642 347.221 29.4346C348.741 27.5049 350.752 26.0474 353.257 25.062C355.761 24.0767 358.512 23.584 361.509 23.584C364.753 23.584 367.524 24.0767 369.823 25.062C372.163 26.0474 374.073 27.2791 375.551 28.7571C377.07 30.2352 378.219 31.7132 378.999 33.1913L368.961 38.7339C368.304 37.7075 367.565 36.9069 366.744 36.3321C365.964 35.7163 365.163 35.2646 364.342 34.9772C363.521 34.6898 362.72 34.5461 361.94 34.5461C360.996 34.5461 360.216 34.7104 359.6 35.0388C359.025 35.3673 358.738 35.8805 358.738 36.5785C358.738 37.4406 359.148 38.1591 359.97 38.7339C360.832 39.2677 361.961 39.7809 363.357 40.2736C364.753 40.7252 366.292 41.2589 367.976 41.8748C369.7 42.4906 371.24 43.2297 372.595 44.0918C373.949 44.913 375.099 45.8778 376.043 46.9863C377.029 48.0949 377.768 49.3471 378.26 50.743C378.753 52.0979 378.999 53.617 378.999 55.3003C378.999 57.6816 378.507 59.7961 377.521 61.6436C376.536 63.4501 375.202 64.9487 373.518 66.1393C371.876 67.33 370.008 68.2332 367.914 68.8491C365.82 69.4649 363.665 69.7729 361.448 69.7729C358.368 69.7729 355.494 69.2597 352.826 68.2332C350.198 67.2479 347.919 65.8725 345.99 64.107C344.06 62.3416 342.603 60.3709 341.617 58.1948L350.732 51.5436Z" fill="#361F0F"/>
<path d="M319.129 49.4485H332.986L345.303 67.9241H329.598L319.129 49.4485ZM306.504 24.8145H320.053V67.9241H306.504V24.8145ZM315.249 36.2077V24.8145H324.672C328.9 24.8145 332.329 25.4508 334.956 26.7236C337.625 27.9964 339.575 29.7413 340.807 31.9583C342.08 34.1754 342.716 36.7209 342.716 39.5949C342.716 42.4278 342.08 44.9733 340.807 47.2315C339.575 49.4485 337.625 51.1934 334.956 52.4662C332.329 53.739 328.9 54.3753 324.672 54.3753H315.249V44.2138H323.44C324.589 44.2138 325.534 44.0701 326.273 43.7827C327.012 43.4542 327.566 42.9821 327.936 42.3662C328.346 41.7504 328.551 41.0319 328.551 40.2107C328.551 39.3486 328.346 38.6301 327.936 38.0553C327.566 37.4394 327.012 36.9878 326.273 36.7004C325.534 36.3719 324.589 36.2077 323.44 36.2077H315.249Z" fill="#361F0F"/>
<path d="M265.791 24.8145H279.34V52.5278C279.34 54.2522 279.771 55.6686 280.633 56.7772C281.536 57.8446 282.912 58.3784 284.759 58.3784C286.607 58.3784 287.962 57.8446 288.824 56.7772C289.727 55.6686 290.179 54.2522 290.179 52.5278V24.8145H303.727V53.7595C303.727 56.8387 303.214 59.4458 302.188 61.5808C301.202 63.6747 299.827 65.3786 298.062 66.6924C296.296 67.9651 294.264 68.8889 291.965 69.4637C289.707 70.0796 287.305 70.3875 284.759 70.3875C282.214 70.3875 279.791 70.0796 277.492 69.4637C275.234 68.8889 273.222 67.9651 271.457 66.6924C269.691 65.3786 268.295 63.6747 267.269 61.5808C266.284 59.4458 265.791 56.8387 265.791 53.7595V24.8145Z" fill="#361F0F"/>
<path d="M241.91 67.9241V57.1467H263.649V67.9241H241.91ZM241.91 35.5919V24.8145H263.649V35.5919H241.91ZM241.91 50.9881V40.5187H262.418V50.9881H241.91ZM232.549 24.8145H245.482V67.9241H232.549V24.8145Z" fill="#361F0F"/>
<path d="M202.666 24.8145H216.215V56.5308H231.049V67.9241H202.666V24.8145Z" fill="#361F0F"/>
<path d="M181.546 36.2077V24.8145H200.823V36.2077H181.546ZM181.546 52.8357V42.3662H200.207V52.8357H181.546ZM172.186 24.8145H185.118V67.9241H172.186V24.8145Z" fill="#361F0F"/>
<path d="M24.0601 48.8698C25.1481 48.8451 26.2114 48.4383 27.2499 47.6494C28.2884 46.8359 29.1662 45.8128 29.8833 44.5802C30.6004 43.3229 31.2062 41.93 31.7008 40.4015C32.22 38.8484 32.492 37.3199 32.5167 35.8161C32.5415 34.2876 32.3807 32.8578 32.0346 31.5265C30.1059 32.8824 27.8186 33.8809 25.1728 34.5218C22.5518 35.1628 19.906 35.4093 17.2355 35.2614C11.3505 34.9163 7.14687 33.3138 4.62472 30.4541C2.62183 28.1614 2.0902 25.5482 3.02983 22.6145C3.99418 19.5329 6.34324 16.8704 10.077 14.627C13.613 12.5069 17.9155 11.077 22.9845 10.3374C24.4434 10.1402 25.8281 10.0293 27.1386 10.0046C28.4492 9.97997 29.6855 10.0539 30.8477 10.2265C32.0098 10.3991 33.0978 10.6456 34.1116 10.9661C35.1502 11.2866 36.1392 11.718 37.0789 12.2604C38.0185 12.7781 38.8963 13.3574 39.7123 13.9984C40.5283 14.6147 41.3195 15.3543 42.0861 16.2171C42.8773 17.0553 43.6068 17.9305 44.2744 18.8427C44.942 19.7548 45.6097 20.7902 46.2773 21.9489C46.9449 23.0829 47.5755 24.2293 48.1689 25.388C48.7624 26.522 49.3805 27.7916 50.0234 29.1968C51.2598 31.9333 52.2612 34.8177 53.0278 37.85C53.819 40.8576 54.363 43.9269 54.6597 47.0578C54.9812 50.1887 54.9812 53.2949 54.6597 56.3765C54.3383 59.4335 53.7325 62.3548 52.8423 65.1406C51.9769 67.9264 50.6911 70.4903 48.9849 72.8323C47.2787 75.1743 45.2635 77.1835 42.9392 78.8599C40.6148 80.5116 37.7712 81.7689 34.4084 82.6318C31.0702 83.4946 27.3735 83.8274 23.3183 83.6302C19.5104 83.4576 16.0733 82.6441 13.0072 81.1896C9.96574 79.7351 7.46832 77.7752 5.51489 75.3099C3.58618 72.8446 2.13966 70.0219 1.1753 66.8417C0.210952 63.6614 -0.159953 60.1607 0.0625901 56.3396C0.30986 52.5184 1.13821 48.5986 2.54765 44.5802C3.24001 42.6326 4.58763 41.0672 6.59051 39.8838C8.5934 38.7005 10.6828 38.0349 12.8588 37.8869C15.0348 37.7144 17.0871 37.9979 19.0158 38.7375C20.9692 39.477 22.2427 40.6111 22.8361 42.1395C23.2318 43.4215 23.1081 44.8637 22.4652 46.4661C22.1438 47.2057 22.1438 47.7974 22.4652 48.2411C22.8114 48.6602 23.343 48.8698 24.0601 48.8698ZM21.7976 15.6255C21.0311 16.6362 20.7096 17.7579 20.8332 18.9906C20.9816 20.2232 21.3278 21.3572 21.8718 22.3927C22.4158 23.4281 23.1699 24.217 24.1343 24.7593C25.0986 25.3017 26.0383 25.4126 26.9532 25.0921C28.0906 24.6977 28.7088 23.8841 28.8077 22.6515C28.9313 21.3942 28.7335 20.1616 28.2142 18.9536C27.7197 17.7456 27.1263 16.7102 26.4339 15.8473C25.8652 15.1817 25.247 14.7749 24.5794 14.627C23.9365 14.4545 23.3801 14.4791 22.9103 14.701C22.4405 14.9229 22.0696 15.231 21.7976 15.6255Z" fill="#361F0F"/>
<path d="M58.4637 61.7755C57.0048 54.2811 56.671 47.4399 57.4623 41.252C58.2536 35.0642 59.8237 29.7638 62.1728 25.351C64.5219 20.9135 67.4149 17.4744 70.852 15.0338C74.3137 12.5932 77.961 11.3605 81.7936 11.3359C83.6482 11.3359 85.5274 11.6194 87.4314 12.1864C89.3601 12.7534 91.3012 13.6779 93.2546 14.9598C95.208 16.2171 97.0255 17.7703 98.7069 19.6192C100.388 21.4682 101.884 23.7855 103.195 26.5713C104.505 29.3324 105.507 32.3894 106.199 35.7421C106.916 39.0703 107.225 42.9777 107.126 47.4646C107.052 51.9514 106.508 56.7217 105.494 61.7755C104.777 65.3748 103.615 68.6167 102.008 71.501C100.401 74.3608 98.5462 76.6904 96.4444 78.4901C94.3673 80.2651 92.0677 81.6333 89.5455 82.5948C87.0481 83.5316 84.526 84 81.9791 84C79.4322 84 76.8977 83.5316 74.3755 82.5948C71.8781 81.6333 69.5785 80.2651 67.4767 78.4901C65.3997 76.6904 63.5575 74.3608 61.9502 71.501C60.343 68.6167 59.1808 65.3748 58.4637 61.7755ZM81.6453 51.1625C83.6729 51.3597 85.1194 50.0777 85.9849 47.3166C86.875 44.5309 87.0234 40.0317 86.4299 33.8192C85.3172 22.405 83.7965 16.6979 81.8678 16.6979C81.2249 16.6732 80.6191 17.2032 80.0504 18.288C79.4817 19.3727 78.95 21.2093 78.4555 23.7979C77.961 26.3618 77.553 29.6283 77.2315 33.5974C76.193 44.7651 77.6642 50.6201 81.6453 51.1625Z" fill="#361F0F"/>
<path d="M163.933 73.7937C163.661 75.9632 162.696 77.8491 161.04 79.4516C159.408 81.0293 157.442 82.1757 155.142 82.8906C152.843 83.6056 150.37 83.9507 147.724 83.926C145.078 83.926 142.606 83.5563 140.306 82.8167C138.031 82.0771 136.09 80.8937 134.483 79.2667C132.876 77.6149 131.973 75.6674 131.775 73.424C131.652 71.6983 131.837 69.9356 132.332 68.1359C132.826 66.3363 133.58 64.2901 134.594 61.9974C135.237 60.3703 134.829 59.5691 133.37 59.5937C132.554 59.6184 130.65 60.0745 127.658 60.962C125.903 61.5043 124.617 61.8248 123.801 61.9234C117.965 62.663 113.762 61.3687 111.19 58.0406C109.558 55.9205 108.742 53.3319 108.742 50.275C108.767 47.1934 109.657 44.235 111.413 41.4C112.278 40.0441 113.514 38.5649 115.122 36.9625C116.754 35.3354 118.534 33.622 120.463 31.8223C122.391 29.998 123.912 28.4203 125.025 27.089C125.767 26.2508 126.694 25.1168 127.807 23.6869C128.944 22.2571 129.908 21.0491 130.7 20.063C131.491 19.0522 132.443 17.9552 133.556 16.7718C134.693 15.5885 135.744 14.627 136.708 13.8874C137.697 13.1479 138.81 12.5192 140.046 12.0015C141.307 11.4591 142.581 11.1756 143.867 11.151C145.449 11.1017 147.019 11.1633 148.577 11.3359C150.16 11.4838 151.755 11.792 153.362 12.2604C154.969 12.7288 156.379 13.3328 157.59 14.0723C158.827 14.8119 159.828 15.7857 160.595 16.9937C161.361 18.177 161.732 19.5206 161.707 21.0244C161.683 22.5036 161.361 24.143 160.743 25.9427C160.125 27.7177 159.457 29.3447 158.74 30.8239C158.023 32.3031 157.355 34.1397 156.737 36.3338C156.119 38.5279 155.798 40.722 155.773 42.9161C155.723 45.1349 156.008 47.4646 156.626 49.9052C157.244 52.3458 157.986 54.6015 158.851 56.6724C159.717 58.7432 160.57 60.7647 161.411 62.737C162.276 64.7092 162.956 66.6691 163.451 68.6167C163.945 70.5396 164.106 72.2653 163.933 73.7937ZM141.975 22.1338C141.851 21.1477 141.715 20.3095 141.567 19.6192C141.443 18.9043 141.332 18.288 141.233 17.7703C141.134 17.2525 140.986 16.9074 140.788 16.7348C140.59 16.5623 140.442 16.3897 140.343 16.2171C140.269 16.0446 140.096 16.0939 139.824 16.365C139.552 16.6116 139.366 16.7595 139.268 16.8088C139.193 16.8581 138.983 17.1786 138.637 17.7703C138.291 18.3619 138.068 18.7564 137.969 18.9536C137.87 19.1508 137.611 19.6439 137.19 20.4328C136.918 20.9258 136.708 21.3203 136.56 21.6161C136.412 21.8873 136.214 22.2571 135.966 22.7255C135.719 23.1939 135.484 23.613 135.262 23.9828C135.113 24.2539 134.755 24.8579 134.186 25.7947C133.617 26.7315 133.209 27.4095 132.962 27.8286C132.74 28.2477 132.431 28.827 132.035 29.5666C131.639 30.2816 131.33 30.9225 131.108 31.4895C130.885 32.0319 130.7 32.5496 130.551 33.0427C129.908 35.2121 130.366 36.4571 131.924 36.7776C133.902 37.1227 135.905 37.0487 137.932 36.5557C139.96 36.038 141.283 35.0519 141.901 33.5974C142.148 32.5619 142.272 30.9102 142.272 28.6421C142.297 26.3494 142.198 24.18 141.975 22.1338Z" fill="#361F0F"/>
<path fill-rule="evenodd" clip-rule="evenodd" d="M392.714 4.19405C392.082 1.8927 390.677 0.147477 387.974 0.0123037C387.902 0.0086955 387.831 0.00582511 387.76 0.00368035C381.805 -0.177081 383.204 6.33118 384.731 12.8128C383.106 11.7062 380.929 11.4856 379.279 12.602C377.638 13.7123 377.063 15.5911 377.004 17.3836C376.936 19.4468 377.774 21.4376 379.018 23.0852C380.562 25.131 382.08 26.0434 383.443 26.2796C383.544 26.2971 383.643 26.3101 383.74 26.3188C383.627 26.4846 383.535 26.6678 383.467 26.8691C383.012 28.2021 382.835 29.8762 383.217 31.9199C384.14 34.9482 387.385 40.3988 392.973 37.9752C393.515 37.6834 394.225 36.993 394.6 35.8673C397.229 39.0695 400.385 40.9584 403.439 38.4568C407.74 34.9341 405.979 30.9244 403.483 28.2291C407.769 28.7659 411.645 27.4064 410.522 20.7119C409.58 15.0895 406.374 13.5295 402.941 13.7488C403.945 12.4617 404.559 11.2206 404.827 10.4184C405.481 8.66499 405.343 4.36168 399.554 1.17546C396.631 -0.433764 394.361 1.34163 392.714 4.19405ZM386.455 24.9985C385.778 23.865 385.318 22.6282 385.06 21.5747C384.582 18.7849 384.801 12.9274 389.504 11.8155C394.207 10.7037 396.92 15.3612 397.688 17.8289C400.213 23.1951 393.595 30.9117 388.721 27.5343C387.802 26.8976 387.054 25.9979 386.468 25.0199C386.457 25.0208 386.447 25.0216 386.437 25.0225C386.443 25.0146 386.449 25.0066 386.455 24.9985Z" fill="#361F0F"/>
</svg>
