<svg width="207" height="149" viewBox="0 0 207 149" fill="#000" xmlns="http://www.w3.org/2000/svg">
<path d="M152.638 132.773C153.34 134.002 154.147 135.072 155.059 135.985C155.972 136.862 156.955 137.529 158.008 137.985C159.096 138.442 160.184 138.67 161.272 138.67C162.184 138.67 162.957 138.494 163.588 138.143C164.22 137.757 164.536 137.161 164.536 136.353C164.536 135.862 164.361 135.441 164.01 135.09C163.694 134.739 163.044 134.335 162.062 133.879C161.079 133.423 159.587 132.808 157.587 132.036C156.709 131.685 155.691 131.211 154.533 130.615C153.41 130.018 152.322 129.246 151.269 128.298C150.251 127.351 149.391 126.192 148.689 124.823C148.022 123.455 147.689 121.84 147.689 119.98C147.689 117.558 148.338 115.522 149.637 113.873C150.935 112.223 152.655 110.977 154.796 110.135C156.937 109.292 159.289 108.871 161.851 108.871C164.624 108.871 166.993 109.292 168.958 110.135C170.959 110.977 172.591 112.03 173.855 113.294C175.153 114.557 176.136 115.821 176.803 117.084L168.221 121.822C167.66 120.945 167.028 120.261 166.326 119.769C165.659 119.243 164.975 118.857 164.273 118.611C163.571 118.365 162.886 118.242 162.22 118.242C161.412 118.242 160.745 118.383 160.219 118.664C159.728 118.944 159.482 119.383 159.482 119.98C159.482 120.717 159.833 121.331 160.535 121.822C161.272 122.279 162.237 122.717 163.43 123.139C164.624 123.525 165.94 123.981 167.379 124.508C168.853 125.034 170.169 125.666 171.328 126.403C172.486 127.105 173.469 127.93 174.276 128.877C175.118 129.825 175.75 130.895 176.171 132.089C176.592 133.247 176.803 134.546 176.803 135.985C176.803 138.02 176.382 139.828 175.539 141.408C174.697 142.952 173.556 144.233 172.117 145.251C170.713 146.269 169.116 147.041 167.326 147.567C165.536 148.094 163.694 148.357 161.798 148.357C159.166 148.357 156.709 147.918 154.428 147.041C152.181 146.198 150.233 145.023 148.584 143.513C146.934 142.004 145.688 140.319 144.846 138.459L152.638 132.773Z" fill="#374B53"/>
<path d="M125.621 130.983H137.467L147.996 146.777H134.571L125.621 130.983ZM114.828 109.924H126.411V146.777H114.828V109.924ZM122.304 119.664V109.924H130.359C133.974 109.924 136.905 110.468 139.151 111.556C141.433 112.644 143.1 114.136 144.153 116.031C145.241 117.926 145.785 120.102 145.785 122.559C145.785 124.981 145.241 127.157 144.153 129.088C143.1 130.983 141.433 132.475 139.151 133.563C136.905 134.651 133.974 135.195 130.359 135.195H122.304V126.508H129.306C130.289 126.508 131.096 126.385 131.728 126.139C132.36 125.859 132.834 125.455 133.15 124.928C133.501 124.402 133.676 123.788 133.676 123.086C133.676 122.349 133.501 121.735 133.15 121.243C132.834 120.717 132.36 120.331 131.728 120.085C131.096 119.804 130.289 119.664 129.306 119.664H122.304Z" fill="#374B53"/>
<path d="M80.0234 109.924H91.606V133.615C91.606 135.09 91.9745 136.3 92.7116 137.248C93.4838 138.161 94.6596 138.617 96.239 138.617C97.8184 138.617 98.9767 138.161 99.7138 137.248C100.486 136.3 100.872 135.09 100.872 133.615V109.924H112.455V134.668C112.455 137.301 112.016 139.53 111.138 141.355C110.296 143.145 109.12 144.601 107.611 145.724C106.102 146.812 104.364 147.602 102.399 148.094C100.468 148.62 98.4151 148.883 96.239 148.883C94.0629 148.883 91.9921 148.62 90.0265 148.094C88.0961 147.602 86.3763 146.812 84.867 145.724C83.3578 144.601 82.1644 143.145 81.287 141.355C80.4446 139.53 80.0234 137.301 80.0234 134.668V109.924Z" fill="#374B53"/>
<path d="M59.608 146.777V137.564H78.1927V146.777H59.608ZM59.608 119.137V109.924H78.1927V119.137H59.608ZM59.608 132.299V123.349H77.1397V132.299H59.608ZM51.6055 109.924H62.6615V146.777H51.6055V109.924Z" fill="#374B53"/>
<path d="M26.0605 109.924H37.6431V137.038H50.3245V146.777H26.0605V109.924Z" fill="#374B53"/>
<path d="M8.00444 119.664V109.924H24.4832V119.664H8.00444ZM8.00444 133.879V124.928H23.9568V133.879H8.00444ZM0.00195312 109.924H11.058V146.777H0.00195312V109.924Z" fill="#374B53"/>
<path d="M25.6819 63.7118C26.8432 63.6853 27.9781 63.2488 29.0867 62.4022C30.1952 61.5292 31.1322 60.4313 31.8976 59.1086C32.663 57.7593 33.3096 56.2646 33.8375 54.6244C34.3918 52.9577 34.6821 51.3175 34.7085 49.7037C34.7349 48.0635 34.5633 46.529 34.1938 45.1005C32.1351 46.5555 29.6937 47.6269 26.8696 48.3148C24.0719 49.0026 21.2477 49.2672 18.3972 49.1084C12.1155 48.7381 7.6286 47.0185 4.93644 43.9497C2.79855 41.4893 2.23109 38.685 3.23405 35.5369C4.2634 32.2299 6.7708 29.3728 10.7562 26.9653C14.5305 24.6902 19.123 23.1558 24.5337 22.3621C26.091 22.1505 27.569 22.0314 28.9679 22.005C30.3668 21.9785 31.6864 22.0579 32.9269 22.2431C34.1674 22.4282 35.3288 22.6928 36.4109 23.0367C37.5194 23.3806 38.5752 23.8436 39.5781 24.4256C40.5811 24.9812 41.5181 25.6029 42.3891 26.2907C43.2601 26.9521 44.1047 27.7458 44.9229 28.6717C45.7675 29.5712 46.5461 30.5103 47.2587 31.4892C47.9713 32.468 48.684 33.5792 49.3966 34.8226C50.1092 36.0395 50.7823 37.2697 51.4157 38.5131C52.0492 39.73 52.709 41.0925 53.3952 42.6004C54.7149 45.537 55.7839 48.6322 56.6021 51.8862C57.4467 55.1138 58.0273 58.4075 58.3441 61.7673C58.6872 65.1271 58.6872 68.4605 58.3441 71.7674C58.0009 75.0479 57.3543 78.1828 56.4041 81.1723C55.4803 84.1617 54.1079 86.9131 52.2867 89.4264C50.4655 91.9396 48.3145 94.0957 45.8334 95.8947C43.3524 97.6672 40.3172 99.0164 36.7276 99.9423C33.1645 100.868 29.2186 101.225 24.8901 101.014C20.8254 100.829 17.1567 99.9556 13.8839 98.3947C10.6375 96.8338 7.97172 94.7306 5.88662 92.0851C3.82791 89.4396 2.28388 86.4104 1.25452 82.9977C0.225171 79.585 -0.170734 75.8283 0.066809 71.7277C0.330746 67.6272 1.21493 63.4208 2.71937 59.1086C3.4584 57.0186 4.89685 55.3387 7.03474 54.0688C9.17263 52.799 11.4029 52.0847 13.7255 51.9259C16.0482 51.7407 18.2389 52.045 20.2976 52.8386C22.3827 53.6323 23.7419 54.8492 24.3754 56.4895C24.7977 57.8652 24.6657 59.4128 23.9795 61.1324C23.6364 61.926 23.6364 62.561 23.9795 63.0372C24.349 63.4869 24.9165 63.7118 25.6819 63.7118ZM23.2669 28.0368C22.4486 29.1214 22.1055 30.3252 22.2375 31.6479C22.3959 32.9707 22.7654 34.1876 23.346 35.2988C23.9267 36.4099 24.7317 37.2565 25.7611 37.8385C26.7904 38.4205 27.7934 38.5395 28.7699 38.1956C29.984 37.7723 30.6439 36.8993 30.7495 35.5765C30.8814 34.2273 30.6703 32.9046 30.116 31.6082C29.5881 30.3119 28.9547 29.2008 28.2157 28.2749C27.6086 27.5606 26.9488 27.1241 26.2361 26.9653C25.5499 26.7801 24.956 26.8066 24.4546 27.0447C23.9531 27.2828 23.5572 27.6135 23.2669 28.0368Z" fill="#374B53"/>
<path d="M62.4045 77.5611C60.8472 69.5187 60.4909 62.1774 61.3355 55.5371C62.1801 48.8968 63.8561 43.2089 66.3635 38.4734C68.8709 33.7114 71.959 30.0209 75.6277 27.4018C79.3228 24.7828 83.2159 23.46 87.3069 23.4335C89.2864 23.4335 91.2923 23.7378 93.3246 24.3463C95.3834 24.9547 97.4553 25.9468 99.5404 27.3225C101.625 28.6717 103.565 30.3384 105.36 32.3225C107.155 34.3067 108.752 36.7935 110.151 39.7829C111.549 42.7459 112.618 46.0264 113.357 49.6243C114.123 53.1958 114.453 57.389 114.347 62.2038C114.268 67.0187 113.687 72.1378 112.605 77.5611C111.84 81.4236 110.599 84.9025 108.884 87.9978C107.168 91.0666 105.189 93.5666 102.945 95.4978C100.728 97.4026 98.2735 98.8709 95.5813 99.9027C92.9155 100.908 90.2234 101.411 87.5048 101.411C84.7863 101.411 82.0809 100.908 79.3888 99.9027C76.723 98.8709 74.2684 97.4026 72.0249 95.4978C69.8079 93.5666 67.8416 91.0666 66.126 87.9978C64.4104 84.9025 63.1699 81.4236 62.4045 77.5611ZM87.1485 66.1721C89.3128 66.3838 90.8568 65.0081 91.7806 62.0451C92.7308 59.0556 92.8892 54.2275 92.2557 47.5608C91.068 35.312 89.4448 29.1876 87.3861 29.1876C86.6998 29.1611 86.0532 29.7299 85.4461 30.8939C84.8391 32.058 84.2716 34.0289 83.7437 36.8067C83.2159 39.5581 82.7804 43.0634 82.4373 47.3227C81.3287 59.307 82.8991 65.5901 87.1485 66.1721Z" fill="#374B53"/>
<path d="M174.982 90.4581C174.692 92.7862 173.663 94.81 171.894 96.5296C170.152 98.2227 168.054 99.4529 165.6 100.22C163.145 100.987 160.506 101.358 157.681 101.331C154.857 101.331 152.218 100.934 149.763 100.141C147.335 99.3471 145.263 98.0772 143.548 96.3312C141.832 94.5587 140.869 92.4687 140.657 90.0613C140.526 88.2094 140.723 86.3178 141.251 84.3866C141.779 82.4554 142.584 80.2596 143.666 77.7992C144.353 76.0532 143.917 75.1934 142.36 75.2198C141.489 75.2463 139.457 75.7357 136.263 76.6881C134.389 77.2701 133.017 77.6141 132.146 77.7199C125.917 78.5135 121.43 77.1246 118.685 73.5532C116.943 71.278 116.072 68.5002 116.072 65.2197C116.098 61.9128 117.048 58.7382 118.922 55.6958C119.846 54.2408 121.166 52.6535 122.881 50.9339C124.623 49.1878 126.524 47.3492 128.582 45.4179C130.641 43.4602 132.264 41.7671 133.452 40.3385C134.244 39.439 135.234 38.2221 136.421 36.6877C137.635 35.1533 138.665 33.8569 139.509 32.7987C140.354 31.7141 141.37 30.5368 142.558 29.2669C143.772 27.9971 144.894 26.9653 145.923 26.1717C146.979 25.378 148.166 24.7034 149.486 24.1478C150.832 23.5658 152.192 23.2616 153.564 23.2351C155.253 23.1822 156.929 23.2484 158.592 23.4335C160.281 23.5923 161.984 23.923 163.699 24.4256C165.415 24.9283 166.919 25.5764 168.212 26.3701C169.532 27.1637 170.601 28.2087 171.419 29.505C172.238 30.7749 172.633 32.2167 172.607 33.8305C172.581 35.4178 172.238 37.1771 171.578 39.1083C170.918 41.0131 170.205 42.7592 169.44 44.3465C168.674 45.9338 167.962 47.9047 167.302 50.2592C166.642 52.6138 166.299 54.9683 166.273 57.3228C166.22 59.7038 166.523 62.2038 167.183 64.8229C167.843 67.442 168.635 69.8626 169.559 72.0849C170.482 74.3071 171.393 76.4765 172.29 78.5929C173.214 80.7093 173.94 82.8125 174.468 84.9025C174.996 86.966 175.167 88.8179 174.982 90.4581ZM151.545 35.021C151.413 33.9628 151.268 33.0633 151.109 32.3225C150.977 31.5553 150.859 30.8939 150.753 30.3384C150.647 29.7828 150.489 29.4125 150.278 29.2273C150.067 29.0421 149.908 28.8569 149.803 28.6717C149.724 28.4865 149.539 28.5394 149.249 28.8304C148.958 29.095 148.76 29.2537 148.655 29.3066C148.576 29.3595 148.351 29.7035 147.982 30.3384C147.612 30.9733 147.375 31.3966 147.269 31.6082C147.164 31.8199 146.886 32.349 146.438 33.1956C146.147 33.7247 145.923 34.148 145.765 34.4654C145.606 34.7564 145.395 35.1533 145.131 35.6559C144.867 36.1586 144.617 36.6083 144.379 37.0051C144.221 37.2961 143.838 37.9443 143.231 38.9496C142.624 39.9549 142.188 40.6824 141.924 41.1322C141.687 41.5819 141.357 42.2036 140.935 42.9973C140.512 43.7645 140.182 44.4523 139.945 45.0608C139.707 45.6428 139.509 46.1984 139.351 46.7275C138.665 49.0555 139.153 50.3915 140.816 50.7354C142.927 51.1058 145.065 51.0264 147.23 50.4973C149.394 49.9418 150.806 48.8836 151.466 47.3227C151.73 46.2116 151.862 44.4391 151.862 42.0052C151.888 39.5448 151.782 37.2168 151.545 35.021Z" fill="#374B53"/>
<path fill-rule="evenodd" clip-rule="evenodd" d="M188.714 4.19405C188.082 1.8927 186.677 0.147477 183.974 0.0123037C183.902 0.0086955 183.831 0.00582511 183.76 0.00368035C177.805 -0.177081 179.204 6.33118 180.731 12.8128C179.106 11.7062 176.929 11.4856 175.279 12.602C173.638 13.7123 173.063 15.5911 173.004 17.3836C172.936 19.4468 173.774 21.4376 175.018 23.0852C176.562 25.131 178.08 26.0434 179.443 26.2796C179.544 26.2971 179.643 26.3101 179.74 26.3188C179.627 26.4846 179.535 26.6678 179.467 26.8691C179.012 28.2021 178.835 29.8762 179.217 31.9199C180.14 34.9482 183.385 40.3988 188.973 37.9752C189.515 37.6834 190.225 36.993 190.6 35.8673C193.229 39.0695 196.385 40.9584 199.439 38.4568C203.74 34.9341 201.979 30.9244 199.483 28.2291C203.769 28.7659 207.645 27.4064 206.522 20.7119C205.58 15.0895 202.374 13.5295 198.941 13.7488C199.945 12.4617 200.559 11.2206 200.827 10.4184C201.481 8.66499 201.343 4.36168 195.554 1.17546C192.631 -0.433764 190.361 1.34163 188.714 4.19405ZM182.455 24.9985C181.778 23.865 181.318 22.6282 181.06 21.5747C180.582 18.7849 180.801 12.9274 185.504 11.8155C190.207 10.7037 192.92 15.3612 193.688 17.8289C196.213 23.1951 189.595 30.9117 184.721 27.5343C183.802 26.8976 183.054 25.9979 182.468 25.0199C182.457 25.0208 182.447 25.0216 182.437 25.0225C182.443 25.0146 182.449 25.0066 182.455 24.9985Z" fill="#374B53"/>
</svg>
