<?xml version="1.0" encoding="UTF-8"?>
<svg id="Layer_1" data-name="Layer 1" xmlns="http://www.w3.org/2000/svg" viewBox="0 0 51.23 45.33">
  <defs>
    <style>
      .cls-1 {
        fill-rule: evenodd;
      }

      .cls-1, .cls-2 {
        fill: #361f0f;
      }
    </style>
  </defs>
  <path class="cls-1" d="M34.91,5.45c-.57-1.94-1.85-3.4-4.3-3.52-.07,0-.13,0-.19,0-5.4-.15-4.13,5.32-2.75,10.77-1.47-.93-3.45-1.12-4.94-.18-1.49.93-2.01,2.51-2.06,4.02-.06,1.74.7,3.41,1.83,4.79,1.4,1.72,2.78,2.49,4.01,2.69.09.01.18.03.27.03-.1.14-.19.29-.25.46-.41,1.12-.57,2.53-.23,4.25.84,2.55,3.78,7.13,8.85,5.09.49-.25,1.14-.83,1.48-1.77,2.38,2.69,5.25,4.28,8.01,2.18,3.9-2.96,2.3-6.33.04-8.6,3.89.45,7.4-.69,6.38-6.32-.85-4.73-3.76-6.04-6.87-5.86.91-1.08,1.47-2.13,1.71-2.8.59-1.47.47-5.09-4.78-7.77-2.65-1.35-4.71.14-6.2,2.54h0ZM29.23,22.94c-.61-.95-1.03-1.99-1.26-2.88-.43-2.35-.23-7.27,4.03-8.21,4.26-.94,6.72,2.98,7.42,5.06,2.29,4.51-3.71,11-8.13,8.16-.83-.54-1.51-1.29-2.04-2.11,0,0-.02,0-.03,0,0,0,.01-.01.02-.02Z"/>
  <text/>
  <path class="cls-2" d="M39.82,44.92q-.77.15-1.73.41c2.83-4.9,1.01-11.66-3.89-14.49,6.05-.59,8.13,7.14,6.69,11.37-.59,1.61-1.06,2.7-1.06,2.7Z"/>
</svg>